<svg xmlns="http://www.w3.org/2000/svg" viewBox="0 0 128 128" width="128" height="128"><defs>
<linearGradient id="stone" x1="0" y1="0" x2="1" y2="1"><stop offset="0" stop-color="#e0d7c9"/><stop offset="1" stop-color="#a99d8d"/></linearGradient>
<linearGradient id="stoneD" x1="0" y1="0" x2="1" y2="1"><stop offset="0" stop-color="#bdb2a2"/><stop offset="1" stop-color="#857868"/></linearGradient>
<linearGradient id="snow" x1="0" y1="0" x2="1" y2="1"><stop offset="0" stop-color="#ffffff"/><stop offset="1" stop-color="#d9e4f0"/></linearGradient>
<linearGradient id="wall" x1="0" y1="0" x2="1" y2="1"><stop offset="0" stop-color="#f8efdc"/><stop offset="1" stop-color="#d8c9ad"/></linearGradient>
<linearGradient id="roof" x1="0" y1="0" x2="1" y2="1"><stop offset="0" stop-color="#e07e5f"/><stop offset="1" stop-color="#a5482f"/></linearGradient>
<linearGradient id="wood" x1="0" y1="0" x2="0" y2="1"><stop offset="0" stop-color="#b98259"/><stop offset="1" stop-color="#7a4b2e"/></linearGradient>
<linearGradient id="woodD" x1="0" y1="0" x2="0" y2="1"><stop offset="0" stop-color="#8d5b3a"/><stop offset="1" stop-color="#5b3a24"/></linearGradient>
<linearGradient id="tree" x1="0" y1="0" x2="1" y2="1"><stop offset="0" stop-color="#8cc496"/><stop offset="1" stop-color="#3f7a56"/></linearGradient>
<linearGradient id="grass" x1="0" y1="0" x2="0" y2="1"><stop offset="0" stop-color="#b3d9a8"/><stop offset="1" stop-color="#78ad80"/></linearGradient>
<linearGradient id="water" x1="0" y1="0" x2="0" y2="1"><stop offset="0" stop-color="#b3e0ee"/><stop offset="1" stop-color="#68aacb"/></linearGradient>
<linearGradient id="gold" x1="0" y1="0" x2="1" y2="1"><stop offset="0" stop-color="#fbdc78"/><stop offset="1" stop-color="#c98f27"/></linearGradient>
<linearGradient id="lava" x1="0" y1="0" x2="0" y2="1"><stop offset="0" stop-color="#ffd166"/><stop offset="0.5" stop-color="#f28a30"/><stop offset="1" stop-color="#d9482a"/></linearGradient>
<linearGradient id="smoke" x1="0" y1="0" x2="0" y2="1"><stop offset="0" stop-color="#f4f2f0"/><stop offset="1" stop-color="#b9b3ae"/></linearGradient>
<linearGradient id="sea" x1="0" y1="0" x2="1" y2="1"><stop offset="0" stop-color="#8ccfaa"/><stop offset="1" stop-color="#3f8069"/></linearGradient>
<linearGradient id="purple" x1="0" y1="0" x2="1" y2="1"><stop offset="0" stop-color="#d3b0f0"/><stop offset="1" stop-color="#7a4fa8"/></linearGradient>
<linearGradient id="dragon" x1="0" y1="0" x2="1" y2="1"><stop offset="0" stop-color="#8fd0a6"/><stop offset="1" stop-color="#3f8069"/></linearGradient>
<linearGradient id="wing" x1="0" y1="0" x2="1" y2="1"><stop offset="0" stop-color="#e2705a"/><stop offset="1" stop-color="#94342a"/></linearGradient>
<radialGradient id="glow" cx="0.5" cy="0.5" r="0.5"><stop offset="0" stop-color="#ffd166" stop-opacity="0.9"/><stop offset="1" stop-color="#ffd166" stop-opacity="0"/></radialGradient>
<filter id="blur" x="-30%" y="-30%" width="160%" height="160%"><feGaussianBlur stdDeviation="3.2"/></filter>
<filter id="blur2" x="-30%" y="-30%" width="160%" height="160%"><feGaussianBlur stdDeviation="1.6"/></filter>
</defs><ellipse cx="64" cy="114" rx="56" ry="5" fill="#3a2c20" fill-opacity="0.30" filter="url(#blur)"/><path d="M6 112 Q64 122 122 112 L112 106 H16 Z" fill="url(#stoneD)" stroke="#4a3a2c" stroke-width="3" stroke-linejoin="round" stroke-linecap="round"/><path d="M12 106 V46 L17.0 40 L22.0 47 L27.0 41 L32 48 V106 Z" fill="url(#stone)" stroke="#4a3a2c" stroke-width="3" stroke-linejoin="round" stroke-linecap="round"/><path d="M23.0 47 L27.0 41 L32 48 V106 H23.0 Z" fill="#3a2c20" fill-opacity="0.18"/><path d="M18.0 50 V104" stroke="#4a3a2c" stroke-opacity="0.28" stroke-width="1.8"/><path d="M24.4 50 V104" stroke="#4a3a2c" stroke-opacity="0.28" stroke-width="1.8"/><rect x="9" y="100" width="26" height="8" rx="1.5" fill="url(#stoneD)" stroke="#4a3a2c" stroke-width="2.6" stroke-linejoin="round" stroke-linecap="round"/><path d="M40 106 V70 L44.5 64 L49.0 71 L53.5 65 L58 72 V106 Z" fill="url(#stone)" stroke="#4a3a2c" stroke-width="3" stroke-linejoin="round" stroke-linecap="round"/><path d="M49.9 71 L53.5 65 L58 72 V106 H49.9 Z" fill="#3a2c20" fill-opacity="0.18"/><path d="M45.4 74 V104" stroke="#4a3a2c" stroke-opacity="0.28" stroke-width="1.8"/><path d="M51.16 74 V104" stroke="#4a3a2c" stroke-opacity="0.28" stroke-width="1.8"/><rect x="37" y="100" width="24" height="8" rx="1.5" fill="url(#stoneD)" stroke="#4a3a2c" stroke-width="2.6" stroke-linejoin="round" stroke-linecap="round"/><path d="M78 106 V40 H98 V106 Z" fill="url(#stone)" stroke="#4a3a2c" stroke-width="3" stroke-linejoin="round" stroke-linecap="round"/><path d="M92 40 H98 V106 H92 Z" fill="#3a2c20" fill-opacity="0.18"/><path d="M78 40 Q80 16 106 20 L104 30 Q92 28 90 40 Z" fill="url(#stone)" stroke="#4a3a2c" stroke-width="3" stroke-linejoin="round" stroke-linecap="round"/><path d="M104 30 L112 34 L106 40 Z" fill="url(#stoneD)" stroke="#4a3a2c" stroke-width="2.4" stroke-linejoin="round" stroke-linecap="round"/><path d="M76 62 h10" stroke="#4a3a2c" stroke-opacity="0.25" stroke-width="1.6"/><path d="M94 78 h10" stroke="#4a3a2c" stroke-opacity="0.25" stroke-width="1.6"/><rect x="60" y="98" width="20" height="10" rx="2" fill="url(#stone)" stroke="#4a3a2c" stroke-width="2.6" stroke-linejoin="round" stroke-linecap="round" transform="rotate(-8 70 103)"/><path d="M100 108 L108 96 L120 100 L118 110 Z" fill="url(#stoneD)" stroke="#4a3a2c" stroke-width="2.6" stroke-linejoin="round" stroke-linecap="round"/><ellipse cx="50" cy="108" rx="8" ry="4" fill="url(#stoneD)" stroke="#4a3a2c" stroke-width="2.4" stroke-linejoin="round" stroke-linecap="round"/><path d="M12 62 q6 -4 10 0 q-3 4 -10 0 Z" fill="#7fbb8c" stroke="#3f7a56" stroke-width="1.4" stroke-linejoin="round"/><path d="M30 40 q6 -3 9 2 q-4 3 -9 -2 Z" fill="#7fbb8c" stroke="#3f7a56" stroke-width="1.4" stroke-linejoin="round"/><path d="M56 88 q5 -3 8 1 q-4 3 -8 -1 Z" fill="#7fbb8c" stroke="#3f7a56" stroke-width="1.4" stroke-linejoin="round"/><path d="M80 44 q5 -3 8 1 q-4 3 -8 -1 Z" fill="#7fbb8c" stroke="#3f7a56" stroke-width="1.4" stroke-linejoin="round"/><path d="M100 108 q6 -4 10 0 q-4 3 -10 0 Z" fill="#7fbb8c" stroke="#3f7a56" stroke-width="1.4" stroke-linejoin="round"/><path d="M34 60 q-3 10 1 20 M35 68 q4 -2 5 -6 M35 76 q-4 -1 -5 -5" fill="none" stroke="#3f7a56" stroke-width="2" stroke-linecap="round"/><path d="M104 106 q3 -12 6 0 M112 106 q3 -9 6 0 M8 108 q3 -10 6 0" fill="none" stroke="#3f7a56" stroke-width="2.4" stroke-linecap="round"/></svg>